<svg data-v-423bf9ae="" xmlns="http://www.w3.org/2000/svg" viewBox="0 0 678 90" class="iconLeftSlogan"><!----><!----><!----><g data-v-423bf9ae="" id="2b5a50ea-b331-4852-b5b0-c321c175a51b" fill="#2F2849" transform="matrix(5.665722297967836,0,0,5.665722297967836,103.20113289010408,-22.26628924765994)"><path d="M2.79 10.40L4.73 10.40L6.69 14.35L8.46 14.35L6.34 10.23C7.59 9.87 8.25 8.90 8.25 7.52C8.25 5.71 7.17 4.58 5.42 4.58L1.20 4.58L1.20 14.35L2.79 14.35ZM2.79 9.07L2.79 5.96L5.31 5.96C6.10 5.96 6.58 6.40 6.58 7.18L6.58 7.85C6.58 8.64 6.10 9.07 5.31 9.07ZM12.91 14.52C14.27 14.52 15.33 13.93 15.88 13.05L14.98 12.17C14.56 12.84 13.96 13.26 13.06 13.26C11.83 13.26 11.14 12.46 11.14 11.34L11.14 11.10L16.14 11.10L16.14 10.53C16.14 8.51 15.05 6.90 12.91 6.90C10.84 6.90 9.56 8.39 9.56 10.71C9.56 13.03 10.84 14.52 12.91 14.52ZM12.91 8.09C13.92 8.09 14.53 8.83 14.53 9.95L14.53 10.09L11.14 10.09L11.14 10.00C11.14 8.88 11.86 8.09 12.91 8.09ZM20.15 14.52C21.90 14.52 23.03 13.58 23.03 12.18C23.03 11.00 22.32 10.30 20.72 10.07L20.05 9.98C19.28 9.86 18.93 9.60 18.93 9.04C18.93 8.50 19.32 8.13 20.16 8.13C20.94 8.13 21.56 8.51 21.94 8.96L22.88 8.06C22.22 7.34 21.48 6.90 20.16 6.90C18.56 6.90 17.46 7.73 17.46 9.14C17.46 10.49 18.37 11.13 19.85 11.31L20.52 11.40C21.28 11.49 21.56 11.84 21.56 12.31C21.56 12.92 21.11 13.29 20.23 13.29C19.36 13.29 18.70 12.89 18.17 12.25L17.19 13.15C17.88 14 18.77 14.52 20.15 14.52ZM29.16 14.35L30.69 14.35L30.69 7.07L29.16 7.07L29.16 11.94C29.16 12.80 28.39 13.20 27.61 13.20C26.67 13.20 26.21 12.61 26.21 11.51L26.21 7.07L24.68 7.07L24.68 11.70C24.68 13.50 25.56 14.52 27.06 14.52C28.27 14.52 28.84 13.86 29.11 13.15L29.16 13.15ZM34.40 14.35L34.40 9.46C34.40 8.62 35.14 8.22 35.90 8.22C36.79 8.22 37.23 8.78 37.23 9.91L37.23 14.35L38.75 14.35L38.75 9.46C38.75 8.62 39.47 8.22 40.24 8.22C41.16 8.22 41.58 8.79 41.58 9.91L41.58 14.35L43.11 14.35L43.11 9.73C43.11 7.94 42.25 6.90 40.81 6.90C39.63 6.90 38.88 7.57 38.61 8.39L38.57 8.39C38.22 7.38 37.39 6.90 36.41 6.90C35.31 6.90 34.76 7.52 34.47 8.27L34.40 8.27L34.40 7.07L32.87 7.07L32.87 14.35ZM48.08 14.52C49.43 14.52 50.50 13.93 51.04 13.05L50.15 12.17C49.73 12.84 49.13 13.26 48.23 13.26C47.00 13.26 46.31 12.46 46.31 11.34L46.31 11.10L51.31 11.10L51.31 10.53C51.31 8.51 50.22 6.90 48.08 6.90C46.00 6.90 44.73 8.39 44.73 10.71C44.73 13.03 46.00 14.52 48.08 14.52ZM48.08 8.09C49.08 8.09 49.70 8.83 49.70 9.95L49.70 10.09L46.31 10.09L46.31 10.00C46.31 8.88 47.03 8.09 48.08 8.09ZM56.42 14.35L61.18 14.35C62.62 14.35 63.70 13.12 63.70 11.54C63.70 9.90 62.45 9.28 61.66 9.25L61.66 9.17C62.45 9.10 63.35 8.57 63.35 7.10C63.35 5.57 62.36 4.58 60.75 4.58L56.42 4.58ZM58.00 10.02L60.72 10.02C61.53 10.02 62.03 10.47 62.03 11.27L62.03 11.75C62.03 12.54 61.53 12.99 60.72 12.99L58.00 12.99ZM58.00 5.94L60.45 5.94C61.22 5.94 61.68 6.36 61.68 7.10L61.68 7.55C61.68 8.29 61.22 8.71 60.45 8.71L58.00 8.71ZM69.94 14.35L71.47 14.35L71.47 7.07L69.94 7.07L69.94 11.94C69.94 12.80 69.17 13.20 68.39 13.20C67.45 13.20 66.99 12.61 66.99 11.51L66.99 7.07L65.46 7.07L65.46 11.70C65.46 13.50 66.35 14.52 67.84 14.52C69.05 14.52 69.62 13.86 69.89 13.15L69.94 13.15ZM74.42 5.77C75.05 5.77 75.32 5.43 75.32 4.97L75.32 4.73C75.32 4.27 75.05 3.93 74.42 3.93C73.79 3.93 73.51 4.27 73.51 4.73L73.51 4.97C73.51 5.43 73.79 5.77 74.42 5.77ZM73.65 14.35L75.18 14.35L75.18 7.07L73.65 7.07ZM79.90 14.35L79.90 13.10L78.89 13.10L78.89 3.99L77.36 3.99L77.36 12.84C77.36 13.78 77.88 14.35 78.92 14.35ZM85.93 14.35L87.46 14.35L87.46 3.99L85.93 3.99L85.93 8.27L85.86 8.27C85.55 7.41 84.78 6.90 83.82 6.90C81.98 6.90 80.92 8.32 80.92 10.71C80.92 13.10 81.98 14.52 83.82 14.52C84.78 14.52 85.55 14 85.86 13.15L85.93 13.15ZM84.28 13.20C83.23 13.20 82.53 12.46 82.53 11.34L82.53 10.08C82.53 8.96 83.23 8.22 84.28 8.22C85.20 8.22 85.93 8.72 85.93 9.46L85.93 11.96C85.93 12.70 85.20 13.20 84.28 13.20ZM92.50 14.52C93.86 14.52 94.92 13.93 95.47 13.05L94.57 12.17C94.15 12.84 93.55 13.26 92.65 13.26C91.42 13.26 90.73 12.46 90.73 11.34L90.73 11.10L95.73 11.10L95.73 10.53C95.73 8.51 94.64 6.90 92.50 6.90C90.43 6.90 89.15 8.39 89.15 10.71C89.15 13.03 90.43 14.52 92.50 14.52ZM92.50 8.09C93.51 8.09 94.12 8.83 94.12 9.95L94.12 10.09L90.73 10.09L90.73 10.00C90.73 8.88 91.45 8.09 92.50 8.09ZM98.95 14.35L98.95 9.70C98.95 8.95 99.62 8.54 100.83 8.54L101.43 8.54L101.43 7.07L101.02 7.07C99.86 7.07 99.23 7.73 99.02 8.47L98.95 8.47L98.95 7.07L97.43 7.07L97.43 14.35Z"></path></g><defs data-v-423bf9ae=""><linearGradient data-v-423bf9ae="" gradientTransform="rotate(25)" id="f7390ad8-d528-4dab-b0d5-d52c3fe221c7" x1="0%" y1="0%" x2="100%" y2="0%"><stop data-v-423bf9ae="" offset="0%" style="stop-color: rgb(233, 142, 13); stop-opacity: 1;"></stop><stop data-v-423bf9ae="" offset="100%" style="stop-color: rgb(21, 54, 241); stop-opacity: 1;"></stop></linearGradient></defs><g data-v-423bf9ae="" id="5424b78d-38f5-4890-96db-fef4d00f2ded" transform="matrix(2.8125,0,0,2.8125,0,0)" stroke="none" fill="url(#f7390ad8-d528-4dab-b0d5-d52c3fe221c7)"><path d="M16 32c8.837 0 16-7.163 16-16S24.837 0 16 0 0 7.163 0 16s7.163 16 16 16zM14.817 6.421h2v8.886h8.887v2H14.817V6.421zm-5.959.437h2v14.283h14.283v2H8.858V6.858z"></path></g><!----><g data-v-423bf9ae="" id="09f57c51-0fcd-4a08-ba23-96b0fb3805c5" fill="#2F2849" transform="matrix(1.824499164481188,0,0,1.824499164481188,109.39791394032193,49.58211126550192)"><path d="M0.40 8.09L0.33 5.89L7.40 5.89L7.16 8.16L6.82 8.12L6.70 6.24L4.16 6.24L4.16 13.90L5.37 14.08L5.30 14.40L2.20 14.40L2.24 14.11L3.43 13.90L3.43 6.24L1.00 6.24L0.76 8.15L0.40 8.09ZM16.33 6.33L15.10 6.16L15.12 5.89L18.24 5.89L18.20 6.16L17.05 6.32L17.05 9.95L21.96 9.95L21.96 6.33L20.70 6.16L20.75 5.89L23.86 5.89L23.80 6.16L22.66 6.32L22.66 13.95L23.91 14.08L23.86 14.40L20.77 14.40L20.82 14.11L21.96 13.90L21.96 10.36L17.05 10.36L17.05 13.95L18.32 14.08L18.25 14.40L15.16 14.40L15.19 14.11L16.33 13.90L16.33 6.33ZM32.85 6.36L31.62 6.18L31.67 5.89L37.86 5.89L37.65 8.07L37.34 8.03L37.21 6.24L33.56 6.24L33.56 9.89L35.85 9.89L36.10 8.94L36.47 8.89L36.24 11.55L35.90 11.61L35.79 10.26L33.56 10.26L33.56 14.03L37.40 14.03L37.91 12.19L38.19 12.26L37.98 14.40L31.64 14.40L31.68 14.11L32.85 13.90L32.85 6.36ZM59.22 14.40L55.81 14.40L55.84 14.11L56.92 13.90L56.92 6.51L55.82 6.36L55.88 6.12L55.88 6.12Q56.05 6.09 56.50 6.02L56.50 6.02L56.50 6.02Q56.94 5.94 57.17 5.91L57.17 5.91L57.17 5.91Q57.40 5.88 57.81 5.84L57.81 5.84L57.81 5.84Q58.22 5.81 58.64 5.81L58.64 5.81L58.64 5.81Q59.33 5.81 59.92 5.96L59.92 5.96L59.92 5.96Q60.50 6.10 60.97 6.40L60.97 6.40L60.97 6.40Q61.43 6.69 61.69 7.18L61.69 7.18L61.69 7.18Q61.95 7.66 61.95 8.29L61.95 8.29L61.95 8.29Q61.95 8.90 61.67 9.43L61.67 9.43L61.67 9.43Q61.39 9.97 60.93 10.33L60.93 10.33L60.93 10.33Q60.46 10.69 59.86 10.90L59.86 10.90L59.86 10.90Q59.26 11.10 58.63 11.10L58.63 11.10L58.63 11.10Q58.35 11.10 58.28 11.09L58.28 11.09L58.21 10.80L58.58 10.78L58.58 10.78Q59.25 10.75 59.74 10.55L59.74 10.55L59.74 10.55Q60.24 10.36 60.53 10.03L60.53 10.03L60.53 10.03Q60.82 9.70 60.96 9.30L60.96 9.30L60.96 9.30Q61.10 8.90 61.10 8.43L61.10 8.43L61.10 8.43Q61.10 7.98 60.93 7.57L60.93 7.57L60.93 7.57Q60.76 7.16 60.44 6.83L60.44 6.83L60.44 6.83Q60.12 6.50 59.60 6.31L59.60 6.31L59.60 6.31Q59.08 6.11 58.43 6.11L58.43 6.11L57.67 6.15L57.67 13.95L59.27 14.08L59.22 14.40ZM70.86 6.36L69.64 6.18L69.69 5.89L75.88 5.89L75.67 8.07L75.35 8.03L75.22 6.24L71.57 6.24L71.57 9.89L73.86 9.89L74.12 8.94L74.48 8.89L74.26 11.55L73.91 11.61L73.80 10.26L71.57 10.26L71.57 14.03L75.41 14.03L75.92 12.19L76.20 12.26L76.00 14.40L69.66 14.40L69.70 14.11L70.86 13.90L70.86 6.36ZM85.73 6.18L85.73 10.11L87.28 10.11L87.28 10.11Q87.96 9.86 88.42 9.28L88.42 9.28L88.42 9.28Q88.88 8.70 88.88 8.02L88.88 8.02L88.88 8.02Q88.88 7.11 88.26 6.63L88.26 6.63L88.26 6.63Q87.64 6.15 86.56 6.15L86.56 6.15L85.73 6.18ZM87.10 14.40L83.91 14.40L83.96 14.11L85.03 13.90L85.03 6.51L83.93 6.37L83.99 6.13L83.99 6.13Q85.82 5.83 86.90 5.83L86.90 5.83L86.90 5.83Q87.66 5.83 88.27 6.05L88.27 6.05L88.27 6.05Q88.88 6.27 89.26 6.73L89.26 6.73L89.26 6.73Q89.63 7.19 89.63 7.83L89.63 7.83L89.63 7.83Q89.63 8.57 89.21 9.14L89.21 9.14L89.21 9.14Q88.78 9.72 87.75 10.23L87.75 10.23L87.75 10.23L89.07 12.19L89.07 12.19Q89.78 13.23 90.12 13.58L90.12 13.58L90.12 13.58Q90.47 13.92 90.85 14.05L90.85 14.05L91.18 14.16L91.14 14.42L91.14 14.42Q90.84 14.52 90.50 14.52L90.50 14.52L90.50 14.52Q90.21 14.52 89.96 14.40L89.96 14.40L89.96 14.40Q89.71 14.28 89.47 14.01L89.47 14.01L89.47 14.01Q89.22 13.75 89.04 13.48L89.04 13.48L89.04 13.48Q88.85 13.22 88.58 12.77L88.58 12.77L87.19 10.49L85.73 10.49L85.73 13.95L87.17 14.08L87.10 14.40ZM100.08 6.36L98.87 6.18L98.92 5.89L105.11 5.89L104.88 8.09L104.55 8.04L104.41 6.24L100.78 6.24L100.78 10.07L103.06 10.07L103.33 9.11L103.71 9.06L103.50 11.72L103.12 11.77L103.00 10.43L100.78 10.43L100.78 13.92L102.46 14.03L102.38 14.40L98.90 14.40L98.92 14.11L100.08 13.90L100.08 6.36ZM114.04 6.36L112.82 6.18L112.87 5.89L119.06 5.89L118.85 8.07L118.54 8.03L118.41 6.24L114.75 6.24L114.75 9.89L117.04 9.89L117.30 8.94L117.67 8.89L117.44 11.55L117.09 11.61L116.98 10.26L114.75 10.26L114.75 14.03L118.60 14.03L119.10 12.19L119.38 12.26L119.18 14.40L112.84 14.40L112.88 14.11L114.04 13.90L114.04 6.36ZM127.12 10.25L127.12 10.25L127.12 10.25Q127.12 9.73 127.23 9.21L127.23 9.21L127.23 9.21Q127.33 8.68 127.53 8.17L127.53 8.17L127.53 8.17Q127.74 7.66 128.06 7.22L128.06 7.22L128.06 7.22Q128.39 6.77 128.81 6.44L128.81 6.44L128.81 6.44Q129.22 6.10 129.78 5.90L129.78 5.90L129.78 5.90Q130.33 5.71 130.97 5.71L130.97 5.71L130.97 5.71Q132.38 5.71 133.29 6.39L133.29 6.39L133.08 8.70L132.76 8.64L132.56 6.87L132.56 6.87Q131.96 6.09 130.65 6.09L130.65 6.09L130.65 6.09Q129.50 6.09 128.67 7.19L128.67 7.19L128.67 7.19Q127.85 8.30 127.85 10.00L127.85 10.00L127.85 10.00Q127.85 11.92 128.65 12.97L128.65 12.97L128.65 12.97Q129.45 14.03 130.93 14.03L130.93 14.03L130.93 14.03Q131.66 14.03 132.35 13.65L132.35 13.65L132.35 13.65Q133.04 13.28 133.51 12.74L133.51 12.74L133.67 12.99L133.67 12.99Q133.50 13.25 133.21 13.51L133.21 13.51L133.21 13.51Q132.92 13.77 132.54 14.02L132.54 14.02L132.54 14.02Q132.15 14.27 131.65 14.42L131.65 14.42L131.65 14.42Q131.14 14.57 130.61 14.57L130.61 14.57L130.61 14.57Q129.04 14.57 128.08 13.40L128.08 13.40L128.08 13.40Q127.12 12.22 127.12 10.25ZM141.41 8.09L141.34 5.89L148.40 5.89L148.16 8.16L147.82 8.12L147.70 6.24L145.17 6.24L145.17 13.90L146.38 14.08L146.30 14.40L143.21 14.40L143.24 14.11L144.44 13.90L144.44 6.24L142.00 6.24L141.76 8.15L141.41 8.09ZM167.84 6.18L167.84 10.11L169.39 10.11L169.39 10.11Q170.08 9.86 170.54 9.28L170.54 9.28L170.54 9.28Q170.99 8.70 170.99 8.02L170.99 8.02L170.99 8.02Q170.99 7.11 170.38 6.63L170.38 6.63L170.38 6.63Q169.76 6.15 168.67 6.15L168.67 6.15L167.84 6.18ZM169.22 14.40L166.02 14.40L166.07 14.11L167.14 13.90L167.14 6.51L166.04 6.37L166.11 6.13L166.11 6.13Q167.93 5.83 169.01 5.83L169.01 5.83L169.01 5.83Q169.78 5.83 170.39 6.05L170.39 6.05L170.39 6.05Q170.99 6.27 171.37 6.73L171.37 6.73L171.37 6.73Q171.75 7.19 171.75 7.83L171.75 7.83L171.75 7.83Q171.75 8.57 171.32 9.14L171.32 9.14L171.32 9.14Q170.89 9.72 169.86 10.23L169.86 10.23L169.86 10.23L171.18 12.19L171.18 12.19Q171.89 13.23 172.23 13.58L172.23 13.58L172.23 13.58Q172.58 13.92 172.96 14.05L172.96 14.05L173.29 14.16L173.25 14.42L173.25 14.42Q172.96 14.52 172.61 14.52L172.61 14.52L172.61 14.52Q172.33 14.52 172.07 14.40L172.07 14.40L172.07 14.40Q171.82 14.28 171.58 14.01L171.58 14.01L171.58 14.01Q171.34 13.75 171.15 13.48L171.15 13.48L171.15 13.48Q170.97 13.22 170.69 12.77L170.69 12.77L169.31 10.49L167.84 10.49L167.84 13.95L169.29 14.08L169.22 14.40ZM182.21 6.36L180.98 6.18L181.03 5.89L187.22 5.89L187.01 8.07L186.70 8.03L186.57 6.24L182.92 6.24L182.92 9.89L185.21 9.89L185.46 8.94L185.83 8.89L185.60 11.55L185.25 11.61L185.14 10.26L182.92 10.26L182.92 14.03L186.76 14.03L187.26 12.19L187.54 12.26L187.34 14.40L181.00 14.40L181.04 14.11L182.21 13.90L182.21 6.36ZM195.26 13.60L195.26 13.60L195.47 11.66L195.79 11.71L195.99 13.21L195.99 13.21Q196.21 13.64 196.74 13.89L196.74 13.89L196.74 13.89Q197.27 14.14 197.87 14.14L197.87 14.14L197.87 14.14Q198.56 14.14 199.04 13.74L199.04 13.74L199.04 13.74Q199.51 13.33 199.51 12.61L199.51 12.61L199.51 12.61Q199.51 12.20 199.30 11.83L199.30 11.83L199.30 11.83Q199.08 11.46 198.74 11.18L198.74 11.18L198.74 11.18Q198.39 10.90 197.97 10.63L197.97 10.63L197.97 10.63Q197.55 10.36 197.13 10.07L197.13 10.07L197.13 10.07Q196.72 9.79 196.37 9.48L196.37 9.48L196.37 9.48Q196.03 9.17 195.81 8.75L195.81 8.75L195.81 8.75Q195.60 8.33 195.60 7.84L195.60 7.84L195.60 7.84Q195.60 6.88 196.29 6.29L196.29 6.29L196.29 6.29Q196.98 5.71 197.87 5.71L197.87 5.71L197.87 5.71Q198.45 5.71 198.99 5.90L198.99 5.90L198.99 5.90Q199.53 6.09 199.86 6.46L199.86 6.46L199.64 8.58L199.32 8.53L199.14 6.87L199.14 6.87Q198.95 6.54 198.54 6.32L198.54 6.32L198.54 6.32Q198.12 6.10 197.69 6.10L197.69 6.10L197.69 6.10Q197.09 6.10 196.68 6.48L196.68 6.48L196.68 6.48Q196.27 6.87 196.27 7.52L196.27 7.52L196.27 7.52Q196.27 7.96 196.49 8.35L196.49 8.35L196.49 8.35Q196.71 8.74 197.06 9.03L197.06 9.03L197.06 9.03Q197.42 9.32 197.84 9.61L197.84 9.61L197.84 9.61Q198.26 9.89 198.69 10.17L198.69 10.17L198.69 10.17Q199.12 10.45 199.47 10.75L199.47 10.75L199.47 10.75Q199.82 11.05 200.04 11.45L200.04 11.45L200.04 11.45Q200.27 11.85 200.27 12.29L200.27 12.29L200.27 12.29Q200.27 13.28 199.51 13.93L199.51 13.93L199.51 13.93Q198.76 14.57 197.52 14.57L197.52 14.57L197.52 14.57Q196.81 14.57 196.21 14.30L196.21 14.30L196.21 14.30Q195.60 14.03 195.26 13.60ZM209.19 6.33L207.96 6.16L207.98 5.89L211.09 5.89L211.06 6.16L209.90 6.32L209.90 11.01L209.90 11.01Q209.90 11.87 210.09 12.49L210.09 12.49L210.09 12.49Q210.27 13.10 210.62 13.45L210.62 13.45L210.62 13.45Q210.96 13.79 211.41 13.95L211.41 13.95L211.41 13.95Q211.86 14.11 212.45 14.11L212.45 14.11L212.45 14.11Q213.62 14.11 214.27 13.40L214.27 13.40L214.27 13.40Q214.91 12.68 214.91 11.33L214.91 11.33L214.91 6.33L213.64 6.16L213.67 5.89L216.58 5.89L216.52 6.16L215.39 6.32L215.37 11.05L215.37 11.05Q215.36 12.78 214.62 13.68L214.62 13.68L214.62 13.68Q213.88 14.58 212.22 14.58L212.22 14.58L212.22 14.58Q211.72 14.58 211.30 14.49L211.30 14.49L211.30 14.49Q210.88 14.40 210.48 14.16L210.48 14.16L210.48 14.16Q210.08 13.93 209.81 13.56L209.81 13.56L209.81 13.56Q209.53 13.19 209.36 12.60L209.36 12.60L209.36 12.60Q209.19 12.01 209.19 11.24L209.19 11.24L209.19 6.33ZM227.06 14.40L224.23 14.40L224.27 14.17L225.41 13.96L225.98 6.36L224.72 6.14L224.77 5.89L226.95 5.89L227.43 7.18L229.58 12.84L232.03 6.88L232.44 5.89L234.67 5.89L234.64 6.14L233.46 6.34L233.84 14.01L235.07 14.12L235.05 14.40L231.90 14.40L231.94 14.17L233.11 13.96L232.72 6.41L229.54 13.99L229.20 14.05L226.41 6.53L225.87 14.01L227.10 14.12L227.06 14.40ZM243.99 6.36L242.76 6.18L242.81 5.89L249.01 5.89L248.79 8.07L248.48 8.03L248.35 6.24L244.70 6.24L244.70 9.89L246.99 9.89L247.24 8.94L247.61 8.89L247.39 11.55L247.04 11.61L246.93 10.26L244.70 10.26L244.70 14.03L248.54 14.03L249.05 12.19L249.33 12.26L249.12 14.40L242.79 14.40L242.83 14.11L243.99 13.90L243.99 6.36Z"></path></g></svg>