<svg data-v-423bf9ae="" xmlns="http://www.w3.org/2000/svg" viewBox="0 0 602 90" class="iconLeftSlogan"><!----><!----><!----><g data-v-423bf9ae="" id="77892e09-c237-4500-9342-36ba21b0a548" fill="#12292A" transform="matrix(5.1271391072693175,0,0,5.1271391072693175,112.0508478510589,-11.023350046428277)"><path d="M7.32 5.40L7.32 5.40L7.32 5.40Q7.32 4.04 5.52 4.04L5.52 4.04L5.52 4.04Q4.40 4.04 3.24 4.72L3.24 4.72L3.24 4.72Q2.91 4.92 2.72 5.09L2.72 5.09L2.72 5.09Q2.53 5.26 2.36 5.26L2.36 5.26L2.36 5.26Q2.19 5.26 2.03 5.17L2.03 5.17L2.03 5.17Q1.87 5.09 1.75 4.96L1.75 4.96L1.75 4.96Q1.30 4.46 1.85 3.99L1.85 3.99L1.85 3.99Q2.67 3.29 4.57 3.08L4.57 3.08L4.57 3.08Q4.95 3.04 5.54 3.04L5.54 3.04L5.54 3.04Q6.13 3.04 6.78 3.25L6.78 3.25L6.78 3.25Q7.43 3.47 7.88 3.83L7.88 3.83L7.88 3.83Q8.76 4.56 8.76 5.69L8.76 5.69L8.76 5.69Q8.76 7.04 7.53 8.15L7.53 8.15L7.53 8.15Q6.47 9.12 5.01 9.54L5.01 9.54L5.01 9.54Q5.41 9.86 5.76 10.48L5.76 10.48L6.30 11.46L6.30 11.46Q7.02 12.79 7.59 12.91L7.59 12.91L7.59 12.91Q7.79 12.94 8.00 12.89L8.00 12.89L8.00 12.89Q8.21 12.84 8.27 12.85L8.27 12.85L8.27 12.85Q8.34 12.85 8.36 12.96L8.36 12.96L8.36 12.96Q8.39 13.07 8.31 13.23L8.31 13.23L8.31 13.23Q8.22 13.40 8.04 13.54L8.04 13.54L8.04 13.54Q7.61 13.88 7.10 13.85L7.10 13.85L7.10 13.85Q6.58 13.81 6.27 13.63L6.27 13.63L6.27 13.63Q5.95 13.46 5.70 13.19L5.70 13.19L5.70 13.19Q5.45 12.93 5.25 12.60L5.25 12.60L5.25 12.60Q5.06 12.27 4.89 11.93L4.89 11.93L4.59 11.26L4.59 11.26Q4.44 10.93 4.32 10.69L4.32 10.69L4.32 10.69Q4.20 10.46 4.11 10.26L4.11 10.26L4.11 10.26Q4.02 10.07 3.91 9.91L3.91 9.91L3.91 9.91Q3.68 9.56 3.32 9.46L3.32 9.46L3.32 9.46Q1.88 13.15 0.40 13.67L0.40 13.67L0.40 13.67Q0.27 13.72 0.15 13.72L0.15 13.72L0.15 13.72Q0.02 13.72-0.08 13.68L-0.08 13.68L-0.08 13.68Q-0.18 13.63-0.25 13.56L-0.25 13.56L-0.25 13.56Q-0.40 13.43-0.40 13.28L-0.40 13.28L-0.40 13.28Q-0.40 13.12-0.29 13.04L-0.29 13.04L-0.29 13.04Q0.73 12.30 1.98 8.70L1.98 8.70L2.39 7.54L2.39 7.54Q3.10 5.54 3.58 5.08L3.58 5.08L3.58 5.08Q3.75 4.95 3.94 4.95L3.94 4.95L3.94 4.95Q4.12 4.95 4.26 5.01L4.26 5.01L4.26 5.01Q4.40 5.07 4.50 5.15L4.50 5.15L4.50 5.15Q4.73 5.36 4.73 5.57L4.73 5.57L4.73 5.57Q4.73 5.78 4.64 5.95L4.64 5.95L4.64 5.95Q4.55 6.12 4.43 6.42L4.43 6.42L4.43 6.42Q4.09 7.29 3.91 7.82L3.91 7.82L3.56 8.80L3.56 8.80Q5.02 8.61 6.14 7.66L6.14 7.66L6.14 7.66Q7.32 6.67 7.32 5.40ZM9.24 11.28L9.24 11.28L9.24 11.28Q9.27 10.68 9.44 10.14L9.44 10.14L9.44 10.14Q9.61 9.60 9.90 9.09L9.90 9.09L9.90 9.09Q10.19 8.58 10.57 8.12L10.57 8.12L10.57 8.12Q10.96 7.67 11.41 7.33L11.41 7.33L11.41 7.33Q12.39 6.60 13.38 6.60L13.38 6.60L13.38 6.60Q14.55 6.60 14.94 7.56L14.94 7.56L14.94 7.56Q15.08 7.89 15.07 8.34L15.07 8.34L15.07 8.34Q15.07 8.78 14.90 9.16L14.90 9.16L14.90 9.16Q14.74 9.54 14.45 9.85L14.45 9.85L14.45 9.85Q14.16 10.17 13.76 10.41L13.76 10.41L13.76 10.41Q13.36 10.66 12.89 10.83L12.89 10.83L12.89 10.83Q11.92 11.17 10.81 11.18L10.81 11.18L10.81 11.18Q10.78 11.28 10.77 11.47L10.77 11.47L10.77 11.47Q10.77 11.66 10.81 11.90L10.81 11.90L10.81 11.90Q10.86 12.13 10.98 12.32L10.98 12.32L10.98 12.32Q11.22 12.73 11.69 12.73L11.69 12.73L11.69 12.73Q12.48 12.73 13.23 12.26L13.23 12.26L13.23 12.26Q13.50 12.11 13.67 11.94L13.67 11.94L13.67 11.94Q13.84 11.77 13.96 11.77L13.96 11.77L13.96 11.77Q14.08 11.77 14.17 11.92L14.17 11.92L14.17 11.92Q14.27 12.07 14.27 12.25L14.27 12.25L14.27 12.25Q14.27 12.61 14.06 12.88L14.06 12.88L14.06 12.88Q13.20 13.74 11.50 13.74L11.50 13.74L11.50 13.74Q10.49 13.74 9.88 13.14L9.88 13.14L9.88 13.14Q9.20 12.46 9.24 11.28ZM13.23 7.51L13.23 7.51L13.23 7.51Q12.52 7.51 11.85 8.49L11.85 8.49L11.85 8.49Q11.29 9.34 10.95 10.50L10.95 10.50L10.95 10.50Q12.09 10.38 12.93 9.60L12.93 9.60L12.93 9.60Q13.71 8.86 13.71 8.18L13.71 8.18L13.71 8.18Q13.71 7.51 13.23 7.51ZM15.49 12.47L15.49 12.47L15.49 12.47Q15.49 12.26 15.58 12.08L15.58 12.08L15.58 12.08Q15.67 11.89 15.81 11.77L15.81 11.77L15.81 11.77Q16.10 11.50 16.41 11.50L16.41 11.50L16.41 11.50Q16.69 11.50 16.69 11.79L16.69 11.79L16.69 11.79Q16.69 12.50 17.16 12.78L17.16 12.78L17.16 12.78Q17.33 12.88 17.51 12.88L17.51 12.88L17.51 12.88Q17.70 12.88 17.83 12.84L17.83 12.84L17.83 12.84Q17.96 12.80 18.07 12.71L18.07 12.71L18.07 12.71Q18.31 12.51 18.31 12.24L18.31 12.24L18.31 12.24Q18.31 11.96 18.19 11.73L18.19 11.73L18.19 11.73Q18.07 11.50 17.88 11.25L17.88 11.25L17.49 10.71L17.49 10.71Q16.67 9.61 16.67 8.69L16.67 8.69L16.67 8.69Q16.67 7.92 17.32 7.30L17.32 7.30L17.32 7.30Q18.06 6.60 19.22 6.60L19.22 6.60L19.22 6.60Q20.23 6.60 20.79 7.10L20.79 7.10L20.79 7.10Q21.26 7.50 21.26 8.02L21.26 8.02L21.26 8.02Q21.26 8.56 20.85 8.88L20.85 8.88L20.85 8.88Q20.48 9.17 20.11 9.09L20.11 9.09L20.11 9.09Q19.95 9.06 19.86 8.92L19.86 8.92L19.86 8.92Q19.77 8.79 19.82 8.62L19.82 8.62L19.82 8.62Q19.88 8.45 19.88 8.26L19.88 8.26L19.88 8.26Q19.88 8.08 19.81 7.92L19.81 7.92L19.81 7.92Q19.74 7.77 19.63 7.66L19.63 7.66L19.63 7.66Q19.39 7.43 19.12 7.43L19.12 7.43L19.12 7.43Q18.86 7.43 18.69 7.49L18.69 7.49L18.69 7.49Q18.52 7.55 18.39 7.66L18.39 7.66L18.39 7.66Q18.12 7.90 18.12 8.26L18.12 8.26L18.12 8.26Q18.12 8.62 18.25 8.88L18.25 8.88L18.25 8.88Q18.37 9.14 18.55 9.40L18.55 9.40L18.55 9.40Q18.73 9.66 18.94 9.93L18.94 9.93L18.94 9.93Q19.15 10.19 19.33 10.49L19.33 10.49L19.33 10.49Q19.76 11.18 19.76 11.70L19.76 11.70L19.76 11.70Q19.76 12.22 19.54 12.57L19.54 12.57L19.54 12.57Q19.33 12.93 18.98 13.18L18.98 13.18L18.98 13.18Q18.23 13.73 17.31 13.73L17.31 13.73L17.31 13.73Q16.43 13.73 15.91 13.31L15.91 13.31L15.91 13.31Q15.49 12.95 15.49 12.47ZM28.12 12.33L28.12 12.33L28.12 12.33Q28.28 12.33 28.28 12.48L28.28 12.48L28.28 12.48Q28.28 13.08 27.69 13.48L27.69 13.48L27.69 13.48Q27.30 13.74 26.76 13.74L26.76 13.74L26.76 13.74Q26.33 13.74 26.09 13.54L26.09 13.54L26.09 13.54Q25.68 13.17 25.68 12.63L25.68 12.63L25.68 12.63Q25.68 11.96 26.24 10.56L26.24 10.56L26.24 10.56Q25.19 11.98 24.77 12.45L24.77 12.45L24.77 12.45Q24.34 12.92 24.03 13.18L24.03 13.18L24.03 13.18Q23.34 13.74 22.79 13.74L22.79 13.74L22.79 13.74Q21.94 13.74 21.66 13.01L21.66 13.01L21.66 13.01Q21.58 12.78 21.58 12.49L21.58 12.49L21.58 12.49Q21.58 12.20 21.68 11.84L21.68 11.84L21.68 11.84Q21.78 11.48 21.94 11.09L21.94 11.09L21.94 11.09Q22.09 10.71 22.28 10.29L22.28 10.29L22.65 9.47L22.65 9.47Q23.36 7.90 23.17 7.60L23.17 7.60L23.17 7.60Q23.09 7.47 22.87 7.34L22.87 7.34L22.87 7.34Q22.78 7.29 22.78 7.17L22.78 7.17L22.78 7.17Q22.78 7.05 22.88 6.95L22.88 6.95L22.88 6.95Q22.98 6.84 23.14 6.75L23.14 6.75L23.14 6.75Q23.47 6.60 23.81 6.60L23.81 6.60L23.81 6.60Q24.14 6.60 24.32 6.67L24.32 6.67L24.32 6.67Q24.49 6.74 24.60 6.85L24.60 6.85L24.60 6.85Q24.83 7.08 24.83 7.35L24.83 7.35L24.83 7.35Q24.83 7.62 24.74 7.96L24.74 7.96L24.74 7.96Q24.65 8.30 24.51 8.70L24.51 8.70L24.51 8.70Q24.36 9.09 24.19 9.52L24.19 9.52L24.19 9.52Q23.72 10.62 23.56 10.98L23.56 10.98L23.30 11.50L23.30 11.50Q23.09 11.98 23.09 12.17L23.09 12.17L23.09 12.17Q23.09 12.36 23.15 12.44L23.15 12.44L23.15 12.44Q23.21 12.52 23.38 12.52L23.38 12.52L23.38 12.52Q23.54 12.52 23.75 12.37L23.75 12.37L23.75 12.37Q23.96 12.22 24.21 11.96L24.21 11.96L24.21 11.96Q24.47 11.71 24.74 11.38L24.74 11.38L24.74 11.38Q25.01 11.05 25.27 10.69L25.27 10.69L25.27 10.69Q25.79 9.99 26.02 9.57L26.02 9.57L26.02 9.57Q27.47 7.01 27.57 6.89L27.57 6.89L27.57 6.89Q27.79 6.60 28.02 6.60L28.02 6.60L28.02 6.60Q28.25 6.60 28.42 6.65L28.42 6.65L28.42 6.65Q28.59 6.70 28.71 6.79L28.71 6.79L28.71 6.79Q29.00 7.01 28.90 7.22L28.90 7.22L28.90 7.22Q27.23 10.70 27.10 11.59L27.10 11.59L27.10 11.59Q27.06 11.90 27.06 12.02L27.06 12.02L27.06 12.02Q27.06 12.54 27.38 12.54L27.38 12.54L27.38 12.54Q27.67 12.54 27.86 12.43L27.86 12.43L27.86 12.43Q28.05 12.33 28.12 12.33ZM34.64 7.89L34.64 7.89L34.64 7.89Q34.25 7.89 33.20 9.04L33.20 9.04L33.20 9.04Q32.41 9.93 32.05 10.38L32.05 10.38L31.44 11.16L31.44 11.16Q31.04 11.92 30.82 12.41L30.82 12.41L30.45 13.21L30.45 13.21Q30.30 13.50 30.20 13.62L30.20 13.62L30.20 13.62Q30.09 13.74 29.91 13.74L29.91 13.74L29.91 13.74Q29.73 13.74 29.56 13.68L29.56 13.68L29.56 13.68Q29.39 13.61 29.27 13.51L29.27 13.51L29.27 13.51Q29.01 13.29 29.01 13.03L29.01 13.03L29.01 13.03Q29.01 12.93 29.16 12.63L29.16 12.63L29.42 12.07L29.42 12.07Q29.54 11.83 29.71 11.44L29.71 11.44L30.09 10.51L30.09 10.51Q30.90 8.49 30.90 7.90L30.90 7.90L30.90 7.90Q30.90 7.59 30.69 7.44L30.69 7.44L30.56 7.34L30.56 7.34Q30.49 7.29 30.49 7.17L30.49 7.17L30.49 7.17Q30.49 7.05 30.58 6.95L30.58 6.95L30.58 6.95Q30.67 6.84 30.82 6.75L30.82 6.75L30.82 6.75Q31.13 6.60 31.44 6.60L31.44 6.60L31.44 6.60Q31.75 6.60 31.93 6.67L31.93 6.67L31.93 6.67Q32.11 6.73 32.24 6.85L32.24 6.85L32.24 6.85Q32.50 7.09 32.50 7.35L32.50 7.35L32.50 7.35Q32.50 7.61 32.43 7.87L32.43 7.87L32.43 7.87Q32.36 8.13 32.26 8.40L32.26 8.40L32.26 8.40Q32.16 8.67 32.04 8.93L32.04 8.93L32.04 8.93Q31.77 9.52 31.70 9.65L31.70 9.65L31.70 9.65Q31.64 9.78 31.66 9.75L31.66 9.75L31.66 9.75Q32.92 8.13 33.17 7.83L33.17 7.83L33.17 7.83Q33.69 7.23 33.99 7L33.99 7L33.99 7Q34.53 6.60 35.01 6.60L35.01 6.60L35.01 6.60Q35.49 6.60 35.78 6.90L35.78 6.90L35.78 6.90Q36.07 7.20 36.07 7.69L36.07 7.69L36.07 7.69Q36.07 8.12 35.85 8.70L35.85 8.70L35.85 8.70Q35.63 9.28 35.55 9.52L35.55 9.52L36.56 8.19L37.12 7.52L37.12 7.52Q37.63 6.95 38.01 6.77L38.01 6.77L38.01 6.77Q38.39 6.60 38.63 6.60L38.63 6.60L38.63 6.60Q38.88 6.60 39.11 6.69L39.11 6.69L39.11 6.69Q39.35 6.77 39.51 6.94L39.51 6.94L39.51 6.94Q39.86 7.27 39.86 7.83L39.86 7.83L39.86 7.83Q39.86 8.36 39.61 8.92L39.61 8.92L39.61 8.92Q39.37 9.48 39.18 9.84L39.18 9.84L39.18 9.84Q39.00 10.20 38.83 10.56L38.83 10.56L38.83 10.56Q38.33 11.65 38.33 12.17L38.33 12.17L38.33 12.17Q38.33 12.54 38.63 12.54L38.63 12.54L38.63 12.54Q38.92 12.54 39.15 12.42L39.15 12.42L39.15 12.42Q39.39 12.30 39.46 12.30L39.46 12.30L39.46 12.30Q39.60 12.30 39.60 12.44L39.60 12.44L39.60 12.44Q39.60 13.05 38.98 13.46L38.98 13.46L38.98 13.46Q38.56 13.74 38.22 13.74L38.22 13.74L38.22 13.74Q37.87 13.74 37.66 13.66L37.66 13.66L37.66 13.66Q37.45 13.58 37.28 13.40L37.28 13.40L37.28 13.40Q36.89 13.00 36.89 12.41L36.89 12.41L36.89 12.41Q36.89 11.81 37.04 11.31L37.04 11.31L37.04 11.31Q37.19 10.81 37.40 10.35L37.40 10.35L37.40 10.35Q37.60 9.88 37.81 9.48L37.81 9.48L37.81 9.48Q38.02 9.09 38.13 8.86L38.13 8.86L38.13 8.86Q38.35 8.38 38.35 8.16L38.35 8.16L38.35 8.16Q38.35 7.89 38.07 7.89L38.07 7.89L38.07 7.89Q37.70 7.89 36.74 9.11L36.74 9.11L36.74 9.11Q36.02 10.06 35.74 10.48L35.74 10.48L35.27 11.16L35.27 11.16Q34.87 11.92 34.66 12.41L34.66 12.41L34.31 13.21L34.31 13.21Q34.18 13.50 34.08 13.62L34.08 13.62L34.08 13.62Q33.99 13.74 33.82 13.74L33.82 13.74L33.82 13.74Q33.65 13.74 33.49 13.69L33.49 13.69L33.49 13.69Q33.33 13.63 33.21 13.54L33.21 13.54L33.21 13.54Q32.94 13.34 32.94 13.12L32.94 13.12L32.94 13.12Q32.94 12.90 33.09 12.51L33.09 12.51L33.09 12.51Q33.24 12.13 33.46 11.65L33.46 11.65L34.41 9.63L34.41 9.63Q34.92 8.50 34.92 8.19L34.92 8.19L34.92 8.19Q34.92 7.89 34.64 7.89ZM35.32 9.82L35.32 9.82L35.32 9.82Q35.33 9.82 35.33 9.81L35.33 9.81L35.33 9.80L35.33 9.80Q35.32 9.81 35.32 9.82ZM40.93 11.28L40.93 11.28L40.93 11.28Q40.95 10.68 41.13 10.14L41.13 10.14L41.13 10.14Q41.30 9.60 41.58 9.09L41.58 9.09L41.58 9.09Q41.87 8.58 42.26 8.12L42.26 8.12L42.26 8.12Q42.64 7.67 43.09 7.33L43.09 7.33L43.09 7.33Q44.07 6.60 45.07 6.60L45.07 6.60L45.07 6.60Q46.24 6.60 46.63 7.56L46.63 7.56L46.63 7.56Q46.76 7.89 46.76 8.34L46.76 8.34L46.76 8.34Q46.75 8.78 46.59 9.16L46.59 9.16L46.59 9.16Q46.42 9.54 46.13 9.85L46.13 9.85L46.13 9.85Q45.84 10.17 45.44 10.41L45.44 10.41L45.44 10.41Q45.04 10.66 44.57 10.83L44.57 10.83L44.57 10.83Q43.60 11.17 42.49 11.18L42.49 11.18L42.49 11.18Q42.46 11.28 42.46 11.47L42.46 11.47L42.46 11.47Q42.45 11.66 42.50 11.90L42.50 11.90L42.50 11.90Q42.55 12.13 42.66 12.32L42.66 12.32L42.66 12.32Q42.91 12.73 43.37 12.73L43.37 12.73L43.37 12.73Q44.17 12.73 44.92 12.26L44.92 12.26L44.92 12.26Q45.19 12.11 45.35 11.94L45.35 11.94L45.35 11.94Q45.52 11.77 45.64 11.77L45.64 11.77L45.64 11.77Q45.77 11.77 45.86 11.92L45.86 11.92L45.86 11.92Q45.95 12.07 45.95 12.25L45.95 12.25L45.95 12.25Q45.95 12.61 45.75 12.88L45.75 12.88L45.75 12.88Q44.88 13.74 43.18 13.74L43.18 13.74L43.18 13.74Q42.18 13.74 41.57 13.14L41.57 13.14L41.57 13.14Q40.89 12.46 40.93 11.28ZM44.92 7.51L44.92 7.51L44.92 7.51Q44.20 7.51 43.54 8.49L43.54 8.49L43.54 8.49Q42.98 9.34 42.64 10.50L42.64 10.50L42.64 10.50Q43.78 10.38 44.62 9.60L44.62 9.60L44.62 9.60Q45.39 8.86 45.39 8.18L45.39 8.18L45.39 8.18Q45.39 7.51 44.92 7.51ZM52.08 12.66L52.08 12.66L52.08 12.66Q51.93 12.28 51.95 11.73L51.95 11.73L51.95 11.73Q51.96 11.19 52.10 10.42L52.10 10.42L52.10 10.42Q52.24 9.66 52.53 8.78L52.53 8.78L52.53 8.78Q53.19 6.75 54.33 5.20L54.33 5.20L54.33 5.20Q54.53 4.93 54.75 4.93L54.75 4.93L54.75 4.93Q54.96 4.93 55.17 5.02L55.17 5.02L55.17 5.02Q55.38 5.12 55.54 5.25L55.54 5.25L55.54 5.25Q55.93 5.58 55.79 5.78L55.79 5.78L55.79 5.78Q54.83 7.33 54.22 8.57L54.22 8.57L54.22 8.57Q55.77 8.46 56.95 7.59L56.95 7.59L56.95 7.59Q58.24 6.64 58.24 5.28L58.24 5.28L58.24 5.28Q58.24 4.35 57.33 4.10L57.33 4.10L57.33 4.10Q57.05 4.03 56.66 4.03L56.66 4.03L56.66 4.03Q56.27 4.03 55.86 4.10L55.86 4.10L55.86 4.10Q55.45 4.18 55.06 4.32L55.06 4.32L55.06 4.32Q54.30 4.60 53.68 5.06L53.68 5.06L53.68 5.06Q53.50 5.19 53.35 5.19L53.35 5.19L53.35 5.19Q53.20 5.19 53.02 5.11L53.02 5.11L53.02 5.11Q52.84 5.03 52.71 4.92L52.71 4.92L52.71 4.92Q52.17 4.46 52.86 3.98L52.86 3.98L52.86 3.98Q53.85 3.28 55.78 3.08L55.78 3.08L55.78 3.08Q56.14 3.04 56.75 3.04L56.75 3.04L56.75 3.04Q57.35 3.04 57.99 3.24L57.99 3.24L57.99 3.24Q58.62 3.44 59.00 3.77L59.00 3.77L59.00 3.77Q59.71 4.40 59.71 5.52L59.71 5.52L59.71 5.52Q59.71 6.54 58.91 7.52L58.91 7.52L58.91 7.52Q58.17 8.43 57.02 9.00L57.02 9.00L57.02 9.00Q57.57 9.24 57.85 9.68L57.85 9.68L57.85 9.68Q58.13 10.12 58.11 10.63L58.11 10.63L58.11 10.63Q58.10 11.14 57.91 11.57L57.91 11.57L57.91 11.57Q57.72 12.00 57.40 12.34L57.40 12.34L57.40 12.34Q57.09 12.69 56.67 12.95L56.67 12.95L56.67 12.95Q56.25 13.21 55.78 13.38L55.78 13.38L55.78 13.38Q54.83 13.74 53.85 13.74L53.85 13.74L53.85 13.74Q52.48 13.74 52.08 12.66ZM53.73 9.68L53.73 9.68L53.73 9.68Q53.21 10.97 53.18 11.93L53.18 11.93L53.18 11.93Q53.17 12.39 53.41 12.64L53.41 12.64L53.41 12.64Q53.66 12.89 54.08 12.89L54.08 12.89L54.08 12.89Q54.50 12.89 54.95 12.71L54.95 12.71L54.95 12.71Q55.41 12.52 55.78 12.21L55.78 12.21L55.78 12.21Q56.64 11.48 56.67 10.57L56.67 10.57L56.67 10.57Q56.69 9.73 55.92 9.43L55.92 9.43L55.92 9.43Q55.69 9.34 55.42 9.32L55.42 9.32L55.42 9.32Q55.10 9.33 54.52 9.48L54.52 9.48L54.52 9.48Q53.94 9.63 53.73 9.68ZM65.91 12.33L65.91 12.33L65.91 12.33Q66.06 12.33 66.06 12.48L66.06 12.48L66.06 12.48Q66.06 13.08 65.47 13.48L65.47 13.48L65.47 13.48Q65.08 13.74 64.54 13.74L64.54 13.74L64.54 13.74Q64.11 13.74 63.88 13.54L63.88 13.54L63.88 13.54Q63.46 13.17 63.46 12.63L63.46 12.63L63.46 12.63Q63.46 11.96 64.03 10.56L64.03 10.56L64.03 10.56Q62.97 11.98 62.55 12.45L62.55 12.45L62.55 12.45Q62.13 12.92 61.81 13.18L61.81 13.18L61.81 13.18Q61.13 13.74 60.57 13.74L60.57 13.74L60.57 13.74Q59.73 13.74 59.45 13.01L59.45 13.01L59.45 13.01Q59.36 12.78 59.36 12.49L59.36 12.49L59.36 12.49Q59.36 12.20 59.46 11.84L59.46 11.84L59.46 11.84Q59.56 11.48 59.72 11.09L59.72 11.09L59.72 11.09Q59.88 10.71 60.06 10.29L60.06 10.29L60.43 9.47L60.43 9.47Q61.14 7.90 60.96 7.60L60.96 7.60L60.96 7.60Q60.87 7.47 60.65 7.34L60.65 7.34L60.65 7.34Q60.57 7.29 60.57 7.17L60.57 7.17L60.57 7.17Q60.57 7.05 60.67 6.95L60.67 6.95L60.67 6.95Q60.76 6.84 60.92 6.75L60.92 6.75L60.92 6.75Q61.26 6.60 61.59 6.60L61.59 6.60L61.59 6.60Q61.93 6.60 62.10 6.67L62.10 6.67L62.10 6.67Q62.28 6.74 62.38 6.85L62.38 6.85L62.38 6.85Q62.61 7.08 62.61 7.35L62.61 7.35L62.61 7.35Q62.61 7.62 62.52 7.96L62.52 7.96L62.52 7.96Q62.43 8.30 62.29 8.70L62.29 8.70L62.29 8.70Q62.15 9.09 61.97 9.52L61.97 9.52L61.97 9.52Q61.50 10.62 61.34 10.98L61.34 10.98L61.09 11.50L61.09 11.50Q60.87 11.98 60.87 12.17L60.87 12.17L60.87 12.17Q60.87 12.36 60.94 12.44L60.94 12.44L60.94 12.44Q61.00 12.52 61.16 12.52L61.16 12.52L61.16 12.52Q61.32 12.52 61.53 12.37L61.53 12.37L61.53 12.37Q61.74 12.22 62.00 11.96L62.00 11.96L62.00 11.96Q62.25 11.71 62.52 11.38L62.52 11.38L62.52 11.38Q62.79 11.05 63.05 10.69L63.05 10.69L63.05 10.69Q63.57 9.99 63.81 9.57L63.81 9.57L63.81 9.57Q65.26 7.01 65.35 6.89L65.35 6.89L65.35 6.89Q65.57 6.60 65.80 6.60L65.80 6.60L65.80 6.60Q66.03 6.60 66.20 6.65L66.20 6.65L66.20 6.65Q66.37 6.70 66.49 6.79L66.49 6.79L66.49 6.79Q66.78 7.01 66.68 7.22L66.68 7.22L66.68 7.22Q65.01 10.70 64.88 11.59L64.88 11.59L64.88 11.59Q64.85 11.90 64.85 12.02L64.85 12.02L64.85 12.02Q64.85 12.54 65.16 12.54L65.16 12.54L65.16 12.54Q65.45 12.54 65.65 12.43L65.65 12.43L65.65 12.43Q65.84 12.33 65.91 12.33ZM70.96 4.99L70.96 4.99L70.96 4.99Q70.81 5.15 70.62 5.25L70.62 5.25L70.62 5.25Q70.43 5.35 70.22 5.38L70.22 5.38L70.22 5.38Q70.01 5.40 69.82 5.31L69.82 5.31L69.82 5.31Q69.63 5.22 69.49 5.06L69.49 5.06L69.49 5.06Q69.20 4.72 69.20 4.37L69.20 4.37L69.20 4.37Q69.20 4.02 69.31 3.85L69.31 3.85L69.31 3.85Q69.43 3.67 69.60 3.56L69.60 3.56L69.60 3.56Q69.92 3.35 70.22 3.35L70.22 3.35L70.22 3.35Q70.51 3.35 70.67 3.39L70.67 3.39L70.67 3.39Q70.83 3.43 70.96 3.53L70.96 3.53L70.96 3.53Q71.30 3.75 71.30 4.08L71.30 4.08L71.30 4.08Q71.30 4.40 71.21 4.62L71.21 4.62L71.21 4.62Q71.11 4.83 70.96 4.99ZM69.56 12.39L69.56 12.39L69.56 12.39Q69.74 12.39 69.74 12.63L69.74 12.63L69.74 12.63Q69.74 12.93 69.46 13.26L69.46 13.26L69.46 13.26Q69.05 13.74 68.36 13.74L68.36 13.74L68.36 13.74Q67.57 13.74 67.27 13.10L67.27 13.10L67.27 13.10Q67.16 12.87 67.16 12.55L67.16 12.55L67.16 12.55Q67.16 12.23 67.28 11.84L67.28 11.84L67.28 11.84Q67.39 11.44 67.56 11.01L67.56 11.01L67.56 11.01Q67.72 10.58 67.92 10.13L67.92 10.13L68.28 9.27L68.28 9.27Q68.68 8.31 68.68 8.00L68.68 8.00L68.68 8.00Q68.68 7.69 68.62 7.59L68.62 7.59L68.62 7.59Q68.55 7.49 68.48 7.44L68.48 7.44L68.34 7.34L68.34 7.34Q68.27 7.29 68.27 7.17L68.27 7.17L68.27 7.17Q68.27 7.05 68.36 6.95L68.36 6.95L68.36 6.95Q68.46 6.84 68.61 6.75L68.61 6.75L68.61 6.75Q68.91 6.60 69.32 6.60L69.32 6.60L69.32 6.60Q70.33 6.60 70.33 7.12L70.33 7.12L70.33 7.12Q70.33 7.74 70.01 8.53L70.01 8.53L70.01 8.53Q69.69 9.32 69.46 9.80L69.46 9.80L69.05 10.75L69.05 10.75Q68.60 11.79 68.60 12.24L68.60 12.24L68.60 12.24Q68.60 12.54 68.90 12.54L68.90 12.54L68.90 12.54Q69.19 12.54 69.34 12.47L69.34 12.47L69.34 12.47Q69.49 12.39 69.56 12.39ZM71.61 13.40L71.61 13.40L71.61 13.40Q71.44 13.22 71.34 12.94L71.34 12.94L71.34 12.94Q71.23 12.67 71.23 12.30L71.23 12.30L71.23 12.30Q71.23 11.94 71.40 11.32L71.40 11.32L71.40 11.32Q71.57 10.71 71.83 9.92L71.83 9.92L72.40 8.22L72.40 8.22Q73.62 4.66 73.81 2.72L73.81 2.72L73.81 2.72Q73.88 2.15 74.38 2.15L74.38 2.15L74.38 2.15Q74.69 2.15 74.89 2.30L74.89 2.30L74.89 2.30Q75.29 2.60 75.28 2.97L75.28 2.97L75.28 2.97Q75.26 3.34 75.15 3.87L75.15 3.87L75.15 3.87Q75.03 4.40 74.85 5.02L74.85 5.02L74.85 5.02Q74.66 5.65 74.42 6.34L74.42 6.34L73.48 9.12L73.48 9.12Q72.67 11.48 72.67 12.17L72.67 12.17L72.67 12.17Q72.67 12.54 72.97 12.54L72.97 12.54L72.97 12.54Q73.25 12.54 73.49 12.42L73.49 12.42L73.49 12.42Q73.73 12.30 73.79 12.30L73.79 12.30L73.79 12.30Q73.94 12.30 73.94 12.44L73.94 12.44L73.94 12.44Q73.94 13.05 73.32 13.46L73.32 13.46L73.32 13.46Q72.90 13.74 72.55 13.74L72.55 13.74L72.55 13.74Q72.21 13.74 72.00 13.66L72.00 13.66L72.00 13.66Q71.78 13.58 71.61 13.40ZM82.02 12.29L82.02 12.29L82.02 12.29Q82.16 12.29 82.16 12.44L82.16 12.44L82.16 12.44Q82.16 13.03 81.55 13.45L81.55 13.45L81.55 13.45Q81.15 13.74 80.79 13.74L80.79 13.74L80.79 13.74Q80.43 13.74 80.22 13.66L80.22 13.66L80.22 13.66Q80.01 13.58 79.84 13.40L79.84 13.40L79.84 13.40Q79.45 12.99 79.45 12.27L79.45 12.27L79.45 12.27Q79.45 12.13 79.51 11.81L79.51 11.81L79.51 11.81Q78.96 12.67 78.56 13.02L78.56 13.02L78.56 13.02Q77.76 13.74 76.99 13.74L76.99 13.74L76.99 13.74Q75.78 13.74 75.41 12.65L75.41 12.65L75.41 12.65Q75.27 12.24 75.27 11.63L75.27 11.63L75.27 11.63Q75.27 11.03 75.46 10.40L75.46 10.40L75.46 10.40Q75.64 9.78 75.96 9.22L75.96 9.22L75.96 9.22Q76.28 8.66 76.70 8.18L76.70 8.18L76.70 8.18Q77.12 7.70 77.58 7.34L77.58 7.34L77.58 7.34Q78.58 6.60 79.39 6.60L79.39 6.60L79.39 6.60Q80.19 6.60 80.68 7.25L80.68 7.25L80.68 7.25Q81.87 3.18 82.47 2.45L82.47 2.45L82.47 2.45Q82.72 2.15 83.00 2.15L83.00 2.15L83.00 2.15Q83.47 2.15 83.71 2.41L83.71 2.41L83.71 2.41Q83.78 2.50 83.78 2.59L83.78 2.59L83.78 2.59Q83.78 2.68 83.67 2.92L83.67 2.92L83.67 2.92Q83.56 3.16 83.35 3.69L83.35 3.69L83.35 3.69Q82.74 5.30 82.50 6.04L82.50 6.04L82.50 6.04Q81.87 7.95 81.65 8.67L81.65 8.67L81.27 9.93L81.27 9.93Q80.79 11.62 80.79 12.08L80.79 12.08L80.79 12.08Q80.79 12.54 81.12 12.54L81.12 12.54L81.12 12.54Q81.43 12.54 81.61 12.46L81.61 12.46L81.87 12.33L81.87 12.33Q81.95 12.29 82.02 12.29ZM77.32 12.71L77.32 12.71L77.32 12.71Q78.03 12.71 78.93 11.34L78.93 11.34L78.93 11.34Q79.88 9.92 80.26 8.24L80.26 8.24L80.26 8.24Q80.23 7.78 79.87 7.56L79.87 7.56L79.87 7.56Q79.75 7.49 79.50 7.49L79.50 7.49L79.50 7.49Q79.25 7.49 78.92 7.67L78.92 7.67L78.92 7.67Q78.59 7.85 78.27 8.16L78.27 8.16L78.27 8.16Q77.96 8.46 77.69 8.88L77.69 8.88L77.69 8.88Q77.42 9.29 77.23 9.75L77.23 9.75L77.23 9.75Q76.79 10.77 76.79 11.74L76.79 11.74L76.79 11.74Q76.79 12.71 77.32 12.71ZM83.02 11.28L83.02 11.28L83.02 11.28Q83.04 10.68 83.21 10.14L83.21 10.14L83.21 10.14Q83.38 9.60 83.67 9.09L83.67 9.09L83.67 9.09Q83.96 8.58 84.35 8.12L84.35 8.12L84.35 8.12Q84.73 7.67 85.18 7.33L85.18 7.33L85.18 7.33Q86.16 6.60 87.16 6.60L87.16 6.60L87.16 6.60Q88.33 6.60 88.72 7.56L88.72 7.56L88.72 7.56Q88.85 7.89 88.85 8.34L88.85 8.34L88.85 8.34Q88.84 8.78 88.68 9.16L88.68 9.16L88.68 9.16Q88.51 9.54 88.22 9.85L88.22 9.85L88.22 9.85Q87.93 10.17 87.53 10.41L87.53 10.41L87.53 10.41Q87.13 10.66 86.66 10.83L86.66 10.83L86.66 10.83Q85.69 11.17 84.58 11.18L84.58 11.18L84.58 11.18Q84.55 11.28 84.55 11.47L84.55 11.47L84.55 11.47Q84.54 11.66 84.59 11.90L84.59 11.90L84.59 11.90Q84.64 12.13 84.75 12.32L84.75 12.32L84.75 12.32Q85.00 12.73 85.46 12.73L85.46 12.73L85.46 12.73Q86.26 12.73 87.01 12.26L87.01 12.26L87.01 12.26Q87.27 12.11 87.44 11.94L87.44 11.94L87.44 11.94Q87.61 11.77 87.73 11.77L87.73 11.77L87.73 11.77Q87.86 11.77 87.95 11.92L87.95 11.92L87.95 11.92Q88.04 12.07 88.04 12.25L88.04 12.25L88.04 12.25Q88.04 12.61 87.83 12.88L87.83 12.88L87.83 12.88Q86.97 13.74 85.27 13.74L85.27 13.74L85.27 13.74Q84.27 13.74 83.66 13.14L83.66 13.14L83.66 13.14Q82.97 12.46 83.02 11.28ZM87.01 7.51L87.01 7.51L87.01 7.51Q86.29 7.51 85.63 8.49L85.63 8.49L85.63 8.49Q85.07 9.34 84.72 10.50L84.72 10.50L84.72 10.50Q85.87 10.38 86.71 9.60L86.71 9.60L86.71 9.60Q87.48 8.86 87.48 8.18L87.48 8.18L87.48 8.18Q87.48 7.51 87.01 7.51ZM89.61 13.51L89.61 13.51L89.61 13.51Q89.48 13.41 89.39 13.28L89.39 13.28L89.39 13.28Q89.31 13.15 89.30 13.06L89.30 13.06L89.30 13.06Q89.30 12.97 89.34 12.83L89.34 12.83L89.34 12.83Q89.39 12.70 89.46 12.51L89.46 12.51L89.46 12.51Q90.86 9.08 90.86 7.90L90.86 7.90L90.86 7.90Q90.84 7.57 90.63 7.44L90.63 7.44L90.49 7.34L90.49 7.34Q90.43 7.29 90.43 7.17L90.43 7.17L90.43 7.17Q90.43 7.05 90.51 6.95L90.51 6.95L90.51 6.95Q90.60 6.84 90.75 6.75L90.75 6.75L90.75 6.75Q91.04 6.60 91.35 6.60L91.35 6.60L91.35 6.60Q91.66 6.60 91.84 6.67L91.84 6.67L91.84 6.67Q92.01 6.73 92.13 6.85L92.13 6.85L92.13 6.85Q92.39 7.10 92.40 7.37L92.40 7.37L92.40 7.37Q92.40 7.64 92.34 7.92L92.34 7.92L92.34 7.92Q92.27 8.20 92.18 8.47L92.18 8.47L92.18 8.47Q92.09 8.74 92.00 8.99L92.00 8.99L92.00 8.99Q91.92 9.23 91.89 9.34L91.89 9.34L91.89 9.34Q91.83 9.58 91.85 9.65L91.85 9.65L91.85 9.65Q92.01 9.50 92.05 9.37L92.05 9.37L92.31 8.86L92.31 8.86Q93.20 7.26 94.05 6.74L94.05 6.74L94.05 6.74Q94.29 6.60 94.64 6.60L94.64 6.60L94.64 6.60Q94.99 6.60 95.20 6.84L95.20 6.84L95.20 6.84Q95.41 7.08 95.42 7.38L95.42 7.38L95.42 7.38Q95.43 7.67 95.38 7.86L95.38 7.86L95.38 7.86Q95.33 8.06 95.22 8.23L95.22 8.23L95.22 8.23Q95.00 8.61 94.68 8.61L94.68 8.61L94.68 8.61Q94.59 8.61 94.51 8.55L94.51 8.55L94.36 8.42L94.36 8.42Q94.14 8.22 93.93 8.22L93.93 8.22L93.93 8.22Q93.72 8.22 93.42 8.50L93.42 8.50L93.42 8.50Q93.13 8.77 92.80 9.20L92.80 9.20L92.80 9.20Q91.72 10.63 91.04 12.40L91.04 12.40L90.74 13.19L90.74 13.19Q90.62 13.49 90.54 13.61L90.54 13.61L90.54 13.61Q90.45 13.74 90.27 13.74L90.27 13.74L90.27 13.74Q90.10 13.74 89.92 13.68L89.92 13.68L89.92 13.68Q89.75 13.61 89.61 13.51Z"></path></g><defs data-v-423bf9ae=""><linearGradient data-v-423bf9ae="" gradientTransform="rotate(25)" id="d4ba1c55-d174-45cc-838d-c5e7b0ee2b4b" x1="0%" y1="0%" x2="100%" y2="0%"><stop data-v-423bf9ae="" offset="0%" style="stop-color: rgb(18, 38, 99); stop-opacity: 1;"></stop><stop data-v-423bf9ae="" offset="100%" style="stop-color: rgb(93, 215, 173); stop-opacity: 1;"></stop></linearGradient></defs><g data-v-423bf9ae="" id="11290e7a-f5c5-433e-a702-c3ba0e3f6f6a" transform="matrix(2.8125,0,0,2.8125,0,0)" stroke="none" fill="url(#d4ba1c55-d174-45cc-838d-c5e7b0ee2b4b)"><path d="M16 32c8.837 0 16-7.163 16-16S24.837 0 16 0 0 7.163 0 16s7.163 16 16 16zM8.858 6.858h2v14.283h14.283v2H8.858V6.858z"></path></g><!----><g data-v-423bf9ae="" id="0e271d4c-353c-4a1d-bea1-7da3fa2debf8" fill="#12292A" transform="matrix(1.4495033608511534,0,0,1.4495033608511534,108.78241029837088,51.76682239519743)"><path d="M0.84 6.97L0.84 5.88L7.73 5.88L7.73 6.97L4.87 6.97L4.87 15.68L3.70 15.68L3.70 6.97L0.84 6.97ZM16.59 15.68L16.59 5.88L17.77 5.88L17.77 10.22L21.94 10.22L21.94 5.88L23.11 5.88L23.11 15.68L21.94 15.68L21.94 11.31L17.77 11.31L17.77 15.68L16.59 15.68ZM32.45 15.68L32.45 5.88L38.39 5.88L38.39 6.97L33.63 6.97L33.63 10.22L38.30 10.22L38.30 11.31L33.63 11.31L33.63 14.59L38.47 14.59L38.47 15.68L32.45 15.68ZM66.96 11.65L64.64 11.65L64.64 15.68L63.46 15.68L63.46 5.88L66.96 5.88L66.96 5.88Q67.72 5.88 68.28 6.10L68.28 6.10L68.28 6.10Q68.84 6.31 69.21 6.68L69.21 6.68L69.21 6.68Q69.58 7.04 69.77 7.53L69.77 7.53L69.77 7.53Q69.96 8.01 69.96 8.54L69.96 8.54L69.96 8.96L69.96 8.96Q69.96 9.49 69.77 9.98L69.77 9.98L69.77 9.98Q69.58 10.47 69.20 10.84L69.20 10.84L69.20 10.84Q68.82 11.21 68.26 11.43L68.26 11.43L68.26 11.43Q67.70 11.65 66.96 11.65L66.96 11.65ZM64.64 6.97L64.64 10.56L66.82 10.56L66.82 10.56Q68.78 10.56 68.78 8.88L68.78 8.88L68.78 8.62L68.78 8.62Q68.78 7.88 68.30 7.43L68.30 7.43L68.30 7.43Q67.82 6.97 66.82 6.97L66.82 6.97L64.64 6.97ZM79.16 15.68L79.16 5.88L85.09 5.88L85.09 6.97L80.33 6.97L80.33 10.22L85.01 10.22L85.01 11.31L80.33 11.31L80.33 14.59L85.18 14.59L85.18 15.68L79.16 15.68ZM100.76 12.15L100.76 15.68L99.58 15.68L99.58 12.40L99.58 12.40Q99.58 12.04 99.41 11.84L99.41 11.84L99.41 11.84Q99.25 11.65 98.83 11.65L98.83 11.65L95.77 11.65L95.77 15.68L94.60 15.68L94.60 5.88L98.10 5.88L98.10 5.88Q98.85 5.88 99.41 6.10L99.41 6.10L99.41 6.10Q99.97 6.31 100.34 6.68L100.34 6.68L100.34 6.68Q100.72 7.04 100.91 7.53L100.91 7.53L100.91 7.53Q101.09 8.01 101.09 8.54L101.09 8.54L101.09 8.96L101.09 8.96Q101.09 9.51 100.79 10.05L100.79 10.05L100.79 10.05Q100.49 10.60 99.86 10.89L99.86 10.89L99.86 11.06L99.86 11.06Q100.28 11.13 100.52 11.40L100.52 11.40L100.52 11.40Q100.76 11.66 100.76 12.15L100.76 12.15ZM95.77 6.97L95.77 10.56L97.96 10.56L97.96 10.56Q98.95 10.56 99.44 10.13L99.44 10.13L99.44 10.13Q99.92 9.70 99.92 8.88L99.92 8.88L99.92 8.62L99.92 8.62Q99.92 7.88 99.44 7.43L99.44 7.43L99.44 7.43Q98.95 6.97 97.96 6.97L97.96 6.97L95.77 6.97ZM110.31 15.68L110.31 5.88L116.33 5.88L116.33 6.97L111.48 6.97L111.48 10.22L116.24 10.22L116.24 11.31L111.48 11.31L111.48 15.68L110.31 15.68ZM125.86 15.68L125.86 5.88L131.80 5.88L131.80 6.97L127.04 6.97L127.04 10.22L131.71 10.22L131.71 11.31L127.04 11.31L127.04 14.59L131.88 14.59L131.88 15.68L125.86 15.68ZM144.45 14.78L144.45 14.78L144.45 14.78Q145.05 14.78 145.48 14.58L145.48 14.58L145.48 14.58Q145.91 14.38 146.18 14.04L146.18 14.04L146.18 14.04Q146.45 13.69 146.59 13.25L146.59 13.25L146.59 13.25Q146.72 12.81 146.72 12.32L146.72 12.32L146.72 12.15L147.90 12.15L147.90 12.32L147.90 12.32Q147.90 13.06 147.67 13.71L147.67 13.71L147.67 13.71Q147.45 14.36 147.01 14.85L147.01 14.85L147.01 14.85Q146.58 15.33 145.94 15.60L145.94 15.60L145.94 15.60Q145.29 15.88 144.45 15.88L144.45 15.88L144.45 15.88Q142.83 15.88 141.92 14.85L141.92 14.85L141.92 14.85Q141.01 13.83 141.01 11.87L141.01 11.87L141.01 9.69L141.01 9.69Q141.01 7.78 141.92 6.73L141.92 6.73L141.92 6.73Q142.83 5.68 144.45 5.68L144.45 5.68L144.45 5.68Q145.29 5.68 145.94 5.96L145.94 5.96L145.94 5.96Q146.58 6.23 147.01 6.71L147.01 6.71L147.01 6.71Q147.45 7.20 147.67 7.85L147.67 7.85L147.67 7.85Q147.90 8.50 147.90 9.24L147.90 9.24L147.90 9.41L146.72 9.41L146.72 9.24L146.72 9.24Q146.71 8.76 146.57 8.32L146.57 8.32L146.57 8.32Q146.44 7.87 146.17 7.53L146.17 7.53L146.17 7.53Q145.89 7.18 145.47 6.98L145.47 6.98L145.47 6.98Q145.05 6.78 144.45 6.78L144.45 6.78L144.45 6.78Q143.32 6.78 142.75 7.60L142.75 7.60L142.75 7.60Q142.18 8.43 142.18 9.77L142.18 9.77L142.18 11.79L142.18 11.79Q142.18 13.23 142.75 14.01L142.75 14.01L142.75 14.01Q143.32 14.78 144.45 14.78ZM156.52 6.97L156.52 5.88L163.41 5.88L163.41 6.97L160.55 6.97L160.55 15.68L159.38 15.68L159.38 6.97L156.52 6.97ZM194.17 12.15L194.17 15.68L192.99 15.68L192.99 12.40L192.99 12.40Q192.99 12.04 192.82 11.84L192.82 11.84L192.82 11.84Q192.65 11.65 192.23 11.65L192.23 11.65L189.18 11.65L189.18 15.68L188.01 15.68L188.01 5.88L191.51 5.88L191.51 5.88Q192.26 5.88 192.82 6.10L192.82 6.10L192.82 6.10Q193.38 6.31 193.75 6.68L193.75 6.68L193.75 6.68Q194.12 7.04 194.31 7.53L194.31 7.53L194.31 7.53Q194.50 8.01 194.50 8.54L194.50 8.54L194.50 8.96L194.50 8.96Q194.50 9.51 194.20 10.05L194.20 10.05L194.20 10.05Q193.90 10.60 193.27 10.89L193.27 10.89L193.27 11.06L193.27 11.06Q193.69 11.13 193.93 11.40L193.93 11.40L193.93 11.40Q194.17 11.66 194.17 12.15L194.17 12.15ZM189.18 6.97L189.18 10.56L191.37 10.56L191.37 10.56Q192.36 10.56 192.84 10.13L192.84 10.13L192.84 10.13Q193.33 9.70 193.33 8.88L193.33 8.88L193.33 8.62L193.33 8.62Q193.33 7.88 192.84 7.43L192.84 7.43L192.84 7.43Q192.36 6.97 191.37 6.97L191.37 6.97L189.18 6.97ZM203.70 15.68L203.70 5.88L209.64 5.88L209.64 6.97L204.88 6.97L204.88 10.22L209.55 10.22L209.55 11.31L204.88 11.31L204.88 14.59L209.72 14.59L209.72 15.68L203.70 15.68ZM224.55 9.21L224.55 8.71L224.55 8.71Q224.55 8.23 224.36 7.87L224.36 7.87L224.36 7.87Q224.17 7.50 223.85 7.27L223.85 7.27L223.85 7.27Q223.52 7.03 223.10 6.90L223.10 6.90L223.10 6.90Q222.68 6.78 222.22 6.78L222.22 6.78L222.22 6.78Q221.82 6.78 221.45 6.88L221.45 6.88L221.45 6.88Q221.09 6.99 220.80 7.18L220.80 7.18L220.80 7.18Q220.51 7.38 220.35 7.66L220.35 7.66L220.35 7.66Q220.18 7.95 220.18 8.33L220.18 8.33L220.18 8.41L220.18 8.41Q220.18 8.82 220.35 9.11L220.35 9.11L220.35 9.11Q220.51 9.39 220.84 9.60L220.84 9.60L220.84 9.60Q221.17 9.80 221.66 9.93L221.66 9.93L221.66 9.93Q222.15 10.07 222.81 10.16L222.81 10.16L222.81 10.16Q224.35 10.40 225.08 11.07L225.08 11.07L225.08 11.07Q225.81 11.73 225.81 12.85L225.81 12.85L225.81 13.02L225.81 13.02Q225.81 13.65 225.59 14.17L225.59 14.17L225.59 14.17Q225.37 14.70 224.95 15.08L224.95 15.08L224.95 15.08Q224.52 15.46 223.89 15.67L223.89 15.67L223.89 15.67Q223.26 15.88 222.43 15.88L222.43 15.88L222.43 15.88Q221.49 15.88 220.77 15.60L220.77 15.60L220.77 15.60Q220.05 15.33 219.57 14.85L219.57 14.85L219.57 14.85Q219.09 14.36 218.83 13.71L218.83 13.71L218.83 13.71Q218.58 13.06 218.58 12.29L218.58 12.29L218.58 11.87L219.76 11.87L219.76 12.21L219.76 12.21Q219.76 13.50 220.47 14.14L220.47 14.14L220.47 14.14Q221.17 14.78 222.43 14.78L222.43 14.78L222.43 14.78Q223.52 14.78 224.08 14.30L224.08 14.30L224.08 14.30Q224.63 13.82 224.63 13.02L224.63 13.02L224.63 12.94L224.63 12.94Q224.63 12.17 224.06 11.76L224.06 11.76L224.06 11.76Q223.50 11.35 222.22 11.17L222.22 11.17L222.22 11.17Q221.48 11.07 220.89 10.87L220.89 10.87L220.89 10.87Q220.29 10.67 219.87 10.34L219.87 10.34L219.87 10.34Q219.45 10.01 219.23 9.55L219.23 9.55L219.23 9.55Q219.00 9.09 219.00 8.46L219.00 8.46L219.00 8.29L219.00 8.29Q219.00 7.71 219.24 7.24L219.24 7.24L219.24 7.24Q219.48 6.76 219.91 6.41L219.91 6.41L219.91 6.41Q220.33 6.06 220.93 5.87L220.93 5.87L220.93 5.87Q221.52 5.68 222.24 5.68L222.24 5.68L222.24 5.68Q223.06 5.68 223.71 5.92L223.71 5.92L223.71 5.92Q224.36 6.16 224.81 6.56L224.81 6.56L224.81 6.56Q225.26 6.96 225.49 7.50L225.49 7.50L225.49 7.50Q225.72 8.04 225.72 8.62L225.72 8.62L225.72 9.21L224.55 9.21ZM234.44 5.88L235.62 5.88L235.62 12.38L235.62 12.38Q235.62 13.57 236.17 14.17L236.17 14.17L236.17 14.17Q236.73 14.78 237.80 14.78L237.80 14.78L237.80 14.78Q238.88 14.78 239.44 14.17L239.44 14.17L239.44 14.17Q239.99 13.57 239.99 12.38L239.99 12.38L239.99 5.88L241.16 5.88L241.16 12.38L241.16 12.38Q241.16 14.08 240.27 14.98L240.27 14.98L240.27 14.98Q239.37 15.88 237.80 15.88L237.80 15.88L237.80 15.88Q236.24 15.88 235.34 14.98L235.34 14.98L235.34 14.98Q234.44 14.08 234.44 12.38L234.44 12.38L234.44 5.88ZM249.73 15.68L249.73 5.88L251.97 5.88L253.29 15.18L253.46 15.18L254.77 5.88L257.01 5.88L257.01 15.68L255.92 15.68L255.92 6.38L255.75 6.38L254.44 15.68L252.31 15.68L250.99 6.38L250.82 6.38L250.82 15.68L249.73 15.68ZM265.97 15.68L265.97 5.88L271.91 5.88L271.91 6.97L267.15 6.97L267.15 10.22L271.82 10.22L271.82 11.31L267.15 11.31L267.15 14.59L271.99 14.59L271.99 15.68L265.97 15.68Z"></path></g></svg>